<?xml version="1.0" encoding="UTF-8"?>
<svg id="Layer_1" xmlns="http://www.w3.org/2000/svg" version="1.1" viewBox="0 0 384 384">
  <!-- Generator: Adobe Illustrator 29.8.2, SVG Export Plug-In . SVG Version: 2.1.1 Build 3)  -->
  <defs>
    <style>
      .st0 {
        fill: #8e51f8;
      }
    </style>
  </defs>
  <path class="st0" d="M384,225.75v158.25h-79.47l.03-139.91c-1.67-29.81-9.99-54.48-44.68-52.88-34.3,1.58-43.06,27.32-44.61,57.38l.03,135.41h-79.47V127.5h76.48v35.25c4.01-4.27,6.85-9.81,10.86-14.26,23.03-25.57,58.44-30.97,91.12-25.13,52.64,9.4,67.66,52.04,68.93,100.58l.78,1.82Z"/>
  <polygon class="st0" points="86.35 384 6.12 384 7.25 127.5 85.22 127.5 86.35 384"/>
  <path class="st0" d="M51.86,0c13.62,2.32,25.62,9.57,33.16,21.21,24.26,37.41-14.35,84.74-56.04,68.06C13.25,82.98,2.94,68.2.12,51.75c.28-3.62-.39-7.71,0-11.25C1.79,25.19,13.97,9.5,28.1,3.61l12.51-3.61h11.25Z"/>
</svg>