<?xml version="1.0" encoding="UTF-8"?>
<svg id="Layer_1" xmlns="http://www.w3.org/2000/svg" version="1.1" viewBox="0 0 512 371">
  <!-- Generator: Adobe Illustrator 29.8.2, SVG Export Plug-In . SVG Version: 2.1.1 Build 3)  -->
  <defs>
    <style>
      .st0 {
        fill: #8e51f8;
      }
    </style>
  </defs>
  <path class="st0" d="M0,45l4.5-13,154.43,154.36L4.5,340c-1.35-3.6-4.03-9.37-4.5-13V45Z"/>
  <path class="st0" d="M512,45v282l-4.5,13-154.43-154.36L507.5,32c1.35,3.6,4.03,9.37,4.5,13Z"/>
  <path class="st0" d="M486,10.01l-199.99,199.5c-18.46,15.27-41.58,15.26-60.02,0L26,10.01l16.45-4.05h428.08s15.46,4.05,15.46,4.05Z"/>
  <path class="st0" d="M486,361.99l-17.45,4.06H43.45l-17.45-4.06,154.63-153.92c19.22,17.02,33.25,36.29,60.33,41.46,40.46,7.73,64.15-14.42,89.67-41.46l155.36,153.92Z"/>
</svg>